<?xml version="1.0" encoding="UTF-8" standalone="no"?>
<svg
   height="244.91"
   width="814.62"
   version="1.1"
   viewBox="0 0 814.61998 244.91001"
   data-name="Layer 1"
   id="Layer_1"
   xmlns="http://www.w3.org/2000/svg"
   xmlns:svg="http://www.w3.org/2000/svg"
   xmlns:rdf="http://www.w3.org/1999/02/22-rdf-syntax-ns#"
   xmlns:cc="http://creativecommons.org/ns#"
   xmlns:dc="http://purl.org/dc/elements/1.1/">
  <metadata
     id="metadata878">
    <rdf:RDF>
      <cc:Work
         rdf:about="">
        <dc:format>image/svg+xml</dc:format>
        <dc:type
           rdf:resource="http://purl.org/dc/dcmitype/StillImage" />
      </cc:Work>
    </rdf:RDF>
  </metadata>
  <defs
     id="defs835">
    <style
       id="style833">&#10;      .cls-1 {&#10;        fill: #fff;&#10;      }&#10;&#10;      .cls-2 {&#10;        fill: #addddd;&#10;      }&#10;&#10;      .cls-3 {&#10;        fill: #1a4f42;&#10;      }&#10;&#10;      .cls-4 {&#10;        fill: #33a285;&#10;      }&#10;&#10;      .cls-5 {&#10;        fill: #57c0a3;&#10;      }&#10;    </style>
  </defs>
  <g
     id="g1">
    <path
       id="path837"
       d="m 625.31999,112.01 h -6.2 v -4.82 h 6.2 v -3.1 c 0,-9.55 4.49,-14.12 15.76,-14.12 v 4.9 c -7.59,0 -10.04,2.78 -10.04,9.22 v 3.1 h 10.37 v 4.82 h -10.37 v 39.76 h -5.71 v -39.76 z"
       style="fill:#ffffff" />
    <path
       id="path839"
       d="m 671.67999,106.54 c 8.98,0 15.1,4.82 17.63,10.45 v -9.8 h 5.71 v 44.57 h -5.71 v -9.88 c -2.61,5.71 -8.82,10.53 -17.71,10.53 -12.16,0 -21.23,-9.06 -21.23,-23.02 0,-13.96 9.06,-22.86 21.31,-22.86 z m 1.06,4.98 c -9.39,0 -16.57,6.53 -16.57,17.88 0,11.35 7.18,18.04 16.57,18.04 9.39,0 16.57,-6.86 16.57,-17.96 0,-11.1 -7.43,-17.96 -16.57,-17.96 z"
       style="fill:#ffffff" />
    <path
       id="path841"
       d="m 716.90999,151.76 h -5.71 v -44.57 h 5.71 v 7.92 c 2.45,-5.47 7.59,-8.74 15.27,-8.74 v 5.96 h -1.55 c -7.43,0 -13.71,3.35 -13.71,14.53 v 24.9 z"
       style="fill:#ffffff" />
    <path
       id="path843"
       d="m 808.98999,126.29 c 0,-9.88 -5.14,-14.94 -13.06,-14.94 -7.92,0 -13.8,5.39 -13.8,16.25 v 24.16 h -5.63 v -25.47 c 0,-9.88 -5.22,-14.94 -13.14,-14.94 -7.92,0 -13.8,5.39 -13.8,16.25 v 24.16 h -5.71 v -44.57 h 5.71 v 7.67 c 2.86,-5.63 8.49,-8.49 14.78,-8.49 7.43,0 13.79,3.51 16.49,10.94 2.45,-7.27 8.98,-10.94 16.08,-10.94 9.88,0 17.71,6.2 17.71,19.27 v 26.12 h -5.63 z"
       style="fill:#ffffff" />
    <path
       id="path845"
       d="m 324.40999,106.24 c 11.26,0 18.86,5.88 21.31,16 h -12.33 c -1.31,-3.84 -4.33,-6.29 -9.06,-6.29 -6.37,0 -10.61,4.82 -10.61,13.63 0,8.81 4.25,13.55 10.61,13.55 4.73,0 7.67,-2.12 9.06,-6.2 h 12.33 c -2.45,9.63 -10.04,16 -21.31,16 -13.06,0 -22.37,-9.14 -22.37,-23.35 0,-14.21 9.31,-23.35 22.37,-23.35 z"
       style="fill:#ffffff" />
    <path
       id="path847"
       d="m 375.22999,106.24 c 7.27,0 12.25,3.43 14.94,7.18 v -6.45 h 11.51 v 45.23 h -11.51 v -6.61 c -2.69,3.92 -7.84,7.35 -15.02,7.35 -11.43,0 -20.57,-9.39 -20.57,-23.51 0,-14.12 9.14,-23.18 20.65,-23.18 z m 2.94,10.04 c -6.12,0 -11.92,4.57 -11.92,13.14 0,8.57 5.79,13.47 11.92,13.47 6.13,0 12,-4.73 12,-13.31 0,-8.58 -5.71,-13.31 -12,-13.31 z"
       style="fill:#ffffff" />
    <path
       id="path849"
       d="m 427.23999,152.21 h -11.43 v -45.23 h 11.43 V 114 c 2.86,-4.65 7.59,-7.67 13.88,-7.67 v 12 h -3.02 c -6.78,0 -10.86,2.61 -10.86,11.35 z"
       style="fill:#ffffff" />
    <path
       id="path851"
       d="m 478.37999,106.24 c 11.59,0 20.65,9.06 20.65,23.18 0,14.12 -9.06,23.51 -20.65,23.51 -7.1,0 -12.16,-3.27 -14.94,-7.18 v 6.45 h -11.43 V 91.79 h 11.43 v 21.8 c 2.78,-4.16 8.08,-7.35 14.94,-7.35 z m -3.02,10.04 c -6.12,0 -11.92,4.73 -11.92,13.31 0,8.58 5.79,13.31 11.92,13.31 6.13,0 12,-4.9 12,-13.47 0,-8.57 -5.79,-13.14 -12,-13.14 z"
       style="fill:#ffffff" />
    <path
       id="path853"
       d="m 530.25999,152.94 c -13.06,0 -22.94,-9.14 -22.94,-23.35 0,-14.21 10.21,-23.35 23.27,-23.35 13.06,0 23.27,9.06 23.27,23.35 0,14.29 -10.45,23.35 -23.59,23.35 z m 0,-9.96 c 6.04,0 11.84,-4.41 11.84,-13.39 0,-8.98 -5.63,-13.39 -11.67,-13.39 -6.04,0 -11.51,4.33 -11.51,13.39 0,9.06 5.22,13.39 11.35,13.39 z"
       style="fill:#ffffff" />
    <path
       id="path855"
       d="m 596.99999,127.23 c 0,-7.27 -4,-11.18 -10.04,-11.18 -6.04,0 -10.2,3.92 -10.2,11.18 v 24.98 h -11.43 v -45.23 h 11.43 v 5.63 c 2.94,-3.84 7.84,-6.29 13.63,-6.29 10.53,0 18.04,6.86 18.04,19.35 v 26.53 h -11.43 v -24.98 z"
       style="fill:#ffffff" />
  </g>
  <g
     transform="translate(-139.57001,-116.14)"
     id="g873">
    <rect
       id="rect859"
       height="244.91"
       width="244.91"
       y="116.14"
       x="139.57001" />
    <g
       id="g871">
      <path
         id="path861"
         d="m 147.11,246.48 c 0,0 22.15,-6.38 47.11,-4.5 24.96,1.88 60.12,10.75 82.59,1.13 26.28,-11.26 12.76,-38.85 34.91,-66.63 0,0 23.74,42.64 10.42,66.26 -12.01,21.3 -26.53,22.52 -70.29,29.84 -87.47,14.64 -86.44,20.82 -104.74,39.04 v -65.13 z"
         class="cls-2" />
      <path
         id="path863"
         d="m 147.11,190.74 v 47.88 c 0,0 26.56,-6.12 68.13,-0.61 41.77,5.53 70.1,7.63 75.87,-29.75 2.31,-14.96 8.96,-32.16 17.79,-39.29 -10.7,-21.02 -7.79,-45.52 -7.79,-45.52 h -61.1 c 0,0 -0.94,3.57 -1.19,32.07 -0.27,31 -24.84,44.8 -91.72,35.22 z"
         class="cls-4" />
      <path
         id="path865"
         d="m 147.11,123.44 v 59.88 c 0,0 59.8,10.12 75.76,-5.77 13.93,-13.88 7.96,-28.95 11.19,-54.11 z"
         class="cls-3" />
      <path
         id="path867"
         d="m 307.87,123.44 c 0,0 -1.88,21.59 6.48,39.99 20.37,-13.7 39.6,-18.31 62.6,-19.44 v -20.55 h -69.07 z"
         class="cls-5" />
      <path
         id="path869"
         d="m 317.16,170.84 c 11.6,-11.59 40.5,-19.83 59.78,-19.83 V 353.74 H 147.11 v -30.21 c 0,0 10.28,-21.95 44.48,-32.38 20.14,-6.14 42.93,-7.69 59.41,-11.82 18.68,-4.69 49.31,-2.88 70.89,-23.53 15.92,-15.23 14.98,-45.82 -4.73,-84.96 z"
         class="cls-1" />
    </g>
  </g>
</svg>
